<svg width="24" height="24" viewBox="0 0 24 24" fill="none" xmlns="http://www.w3.org/2000/svg">
<path d="M4.5 14C4.77614 14 5 14.2239 5 14.5V17.585L8.30273 14.2822C8.498 14.087 8.81548 14.087 9.01074 14.2822L9.71777 14.9893C9.91286 15.1844 9.91261 15.501 9.71777 15.6963L6.41406 19H9.5C9.77614 19 10 19.2239 10 19.5V20.5C10 20.7761 9.77614 21 9.5 21H3.5L3.39941 20.9902C3.17145 20.9437 3 20.7417 3 20.5V14.5C3 14.2239 3.22386 14 3.5 14H4.5ZM20.5 14C20.7761 14 21 14.2239 21 14.5V20.5C21 20.7761 20.7761 21 20.5 21H14.5C14.2239 21 14 20.7761 14 20.5V19.5C14 19.2239 14.2239 19 14.5 19H17.585L14.2822 15.6973C14.087 15.502 14.087 15.1855 14.2822 14.9902L14.9893 14.2832C15.1845 14.088 15.501 14.088 15.6963 14.2832L19 17.5859V14.5C19 14.2239 19.2239 14 19.5 14H20.5ZM9.5 3C9.77614 3 10 3.22386 10 3.5V4.5C10 4.77614 9.77614 5 9.5 5H6.41504L9.71777 8.30273C9.91299 8.49799 9.91299 8.81451 9.71777 9.00977L9.01074 9.7168C8.81549 9.91205 8.49898 9.91202 8.30371 9.7168L5 6.41309V9.5C5 9.77614 4.77614 10 4.5 10H3.5C3.22386 10 3 9.77614 3 9.5V3.5C3 3.22386 3.22386 3 3.5 3H9.5ZM20.6006 3.00977C20.8286 3.05629 21 3.25829 21 3.5V9.5C21 9.77614 20.7761 10 20.5 10H19.5C19.2239 10 19 9.77614 19 9.5V6.41406L15.6973 9.71777C15.502 9.91304 15.1845 9.91304 14.9893 9.71777L14.2822 9.01074C14.0871 8.81561 14.0874 8.49899 14.2822 8.30371L17.5859 5H14.5C14.2239 5 14 4.77614 14 4.5V3.5C14 3.22386 14.2239 3 14.5 3H20.5L20.6006 3.00977Z" fill="#181818"/>
</svg>
